<?xml version="1.0" encoding="UTF-8"?>
<svg width="16px" height="16px" viewBox="0 0 16 16" version="1.1" xmlns="http://www.w3.org/2000/svg" xmlns:xlink="http://www.w3.org/1999/xlink">
    <!-- Generator: Sketch 59 (86127) - https://sketch.com -->
    <title>yaoqingjiangli 2</title>
    <desc>Created with Sketch.</desc>
    <g id="页面-1" stroke="none" stroke-width="1" fill="none" fill-rule="evenodd">
        <g id="激励挖矿-个人中心" transform="translate(-1262.000000, -280.000000)" fill="#FFFFFF" fill-rule="nonzero">
            <g id="我的弹窗" transform="translate(1240.000000, 53.000000)">
                <g id="编组-8" transform="translate(21.000000, 188.000000)">
                    <g id="编组-5" transform="translate(1.000000, 39.000000)">
                        <g id="yaoqingjiangli-2">
                            <g id="yaoqingjiangli">
                                <path d="M6.77246009,5.33667768 C6.74858537,5.33667768 6.72469247,5.33522413 6.70081776,5.33197179 C5.90479382,5.22956848 4.76213219,4.91839764 3.84017546,4.01851685 C3.20985737,3.40267985 2.98915245,2.50279906 3.26414783,1.66987287 C3.55578647,0.784473171 4.35108361,0.170453107 5.39026996,0.0271684482 C5.94892756,-0.0484530007 6.52135762,0.137166602 6.96858168,0.538803374 C7.38975067,0.918364205 7.71322227,1.28960343 7.95493111,1.68073823 C8.1749274,1.35653986 8.45642745,1.03234148 8.80813445,0.694388796 C9.39357388,0.132097301 10.2199954,-0.0915147195 10.9581313,0.109312749 C11.8482369,0.351021591 12.507499,0.986754208 12.7216992,1.80992337 C12.9264876,2.59907923 12.6905749,3.44539634 12.1044086,4.01817163 C11.3865317,4.71831511 10.4580703,5.15612736 9.34437086,5.32003441 C9.03970471,5.36598507 8.75820465,5.15467379 8.71334416,4.85073441 C8.66848366,4.54715842 8.87906816,4.26493159 9.18228077,4.22007109 C10.0600856,4.09126751 10.7815783,3.75584039 11.3279351,3.22321969 C11.6333281,2.9239862 11.7527198,2.50027349 11.6456288,2.08960646 C11.5320149,1.65070403 11.1752568,1.32000098 10.6672376,1.18176744 C10.3039566,1.08479682 9.87917191,1.20709572 9.57812148,1.4958454 C8.91524364,2.13303157 8.58454059,2.65587708 8.47381566,3.24529563 C8.42388588,3.50799025 8.19447779,3.69795236 7.92745882,3.69795236 C7.6604217,3.69795236 7.43103176,3.50799025 7.38110199,3.24529563 C7.26676133,2.63850703 7.02577926,2.08635412 6.22468604,1.36522486 C6.02494874,1.18540133 5.76950375,1.09602555 5.54227599,1.1285853 C4.92355004,1.21361855 4.47776136,1.53781694 4.319287,2.01796412 C4.17889128,2.44456578 4.29323194,2.90661616 4.61743031,3.22321967 C5.35556621,3.94471232 6.32888812,4.16325506 6.84268523,4.22982811 C7.14735138,4.26891071 7.36227839,4.5475218 7.32319581,4.85180641 C7.28698397,5.13225265 7.04745545,5.33667768 6.77246009,5.33667768 Z M13.1059478,15.6854067 L2.83863631,15.6854067 C2.21700323,15.6854067 1.71189116,15.1256589 1.71189116,14.4378162 L1.71189116,7.62018402 L14.2319662,7.62018402 L14.2319662,14.437798 C14.2319662,15.1256408 13.7268541,15.6854067 13.1059478,15.6854067 Z M2.82344661,8.73173947 L2.82344661,14.4378162 C2.82344661,14.5282822 2.86252921,14.5753048 2.87192283,14.5818277 L13.1037675,14.5738694 C13.0835085,14.5724159 13.1204107,14.5257384 13.1204107,14.4378162 L13.1059296,8.73173947 L2.82344661,8.73173947 Z M13.7644831,8.67167111 L2.18011914,8.67167111 C0.986074165,8.67167111 0.0149325994,7.70051138 0.0149325994,6.50648457 L0.0149325994,6.39034513 C0.0149325994,5.19630016 0.98609233,4.22514041 2.18011914,4.22514041 L13.7645013,4.22514041 C14.9585463,4.22514041 15.9296878,5.19630014 15.9296878,6.39034513 L15.9296878,6.50648457 C15.9296878,7.70051136 14.9585281,8.67167111 13.7644831,8.67167111 Z M2.18011914,5.33667768 C1.59902221,5.33667768 1.12646989,5.80923002 1.12646989,6.39032694 L1.12646989,6.50646637 C1.12646989,7.0875633 1.59902223,7.56011563 2.18011914,7.56011563 L13.7645013,7.56011563 C14.3455982,7.56011563 14.8181506,7.08756328 14.8181506,6.50646637 L14.8181506,6.39032694 C14.8181506,5.80923001 14.3455982,5.33667768 13.7645013,5.33667768 L2.18011914,5.33667768 Z" id="形状"></path>
                            </g>
                        </g>
                    </g>
                </g>
            </g>
        </g>
    </g>
</svg>