<?xml version="1.0" encoding="UTF-8"?>
<svg width="13px" height="15px" viewBox="0 0 13 15" version="1.1" xmlns="http://www.w3.org/2000/svg" xmlns:xlink="http://www.w3.org/1999/xlink">
    <!-- Generator: Sketch 59 (86127) - https://sketch.com -->
    <title>编组 13备份 7</title>
    <desc>Created with Sketch.</desc>
    <g id="页面-1" stroke="none" stroke-width="1" fill="none" fill-rule="evenodd">
        <g id="激励挖矿-个人中心" transform="translate(-1344.000000, -144.000000)" fill-rule="nonzero" stroke="#FFFFFF" stroke-width="0.950086059">
            <g id="我的弹窗" transform="translate(1240.000000, 53.000000)">
                <g id="编组-13备份-7" transform="translate(104.000000, 91.000000)">
                    <g id="编组-13备份-6" transform="translate(6.500000, 7.500000) rotate(-180.000000) translate(-6.500000, -7.500000) ">
                        <g id="编组-13备份-3">
                            <g id="编组-13备份" transform="translate(6.602410, 7.602410) rotate(-180.000000) translate(-6.602410, -7.602410) translate(0.602410, 0.602410)">
                                <g id="编组-11" transform="translate(0.444010, 0.577554)">
                                    <path d="M0.790471601,0.810740103 L7.43854045,0.810740103 C7.66305309,0.810740103 7.8439105,0.629882696 7.8439105,0.405370052 C7.8439105,0.180857408 7.66305309,1.15374377e-12 7.43854045,1.15374377e-12 L0.790471601,1.15374377e-12 C0.565958957,1.15374377e-12 0.385101549,0.180857408 0.385101549,0.405370052 C0.385101549,0.629882696 0.565958957,0.810740103 0.790471601,0.810740103 Z" id="路径" fill="#FA7268"></path>
                                    <path d="M7.24521012,3.63589002 L0.796708063,3.63589002 C0.572195419,3.63589002 0.391338011,3.81674743 0.391338011,4.04126007 C0.391338011,4.26577272 0.572195419,4.44663012 0.796708063,4.44663012 L7.24521012,4.44663012 C8.78561631,4.44663012 10.0453817,5.70015905 10.0453817,7.24680171 C10.0453817,8.79344437 8.79185277,10.0469733 7.24521012,10.0469733 L1.38293552,10.0469733 L2.43066119,8.99924763 C2.58657275,8.84333607 2.58657275,8.58140465 2.43066119,8.42549309 C2.27474964,8.26958153 2.01281822,8.26958153 1.85690666,8.42549309 L0.116933669,10.1654661 C-0.0389778896,10.3213776 -0.0389778896,10.5833091 0.116933669,10.7392206 L1.85690666,12.4791936 C1.93798067,12.5602676 2.03776407,12.5976864 2.14378393,12.5976864 C2.24980379,12.5976864 2.34958718,12.5602676 2.43066119,12.4791936 C2.58657275,12.3232821 2.58657275,12.0613506 2.43066119,11.9054391 L1.38293552,10.8577134 L7.24521012,10.8577134 C9.2346416,10.8577134 10.8561218,9.2362332 10.8561218,7.24680171 C10.8561218,5.25737023 9.2346416,3.63589002 7.24521012,3.63589002 Z" id="路径" fill="#3E3A39"></path>
                                </g>
                            </g>
                        </g>
                    </g>
                </g>
            </g>
        </g>
    </g>
</svg>