<?xml version="1.0" encoding="UTF-8"?>
<svg width="16px" height="16px" viewBox="0 0 16 16" version="1.1" xmlns="http://www.w3.org/2000/svg" xmlns:xlink="http://www.w3.org/1999/xlink">
    <!-- Generator: Sketch 59 (86127) - https://sketch.com -->
    <title>编组 17</title>
    <desc>Created with Sketch.</desc>
    <g id="页面-1" stroke="none" stroke-width="1" fill="none" fill-rule="evenodd">
        <g id="激励挖矿-总收益备份-2" transform="translate(-1330.000000, -930.000000)">
            <g id="编组-25" transform="translate(320.000000, 540.000000)">
                <g id="编组-23" transform="translate(0.000000, 351.000000)">
                    <g id="编组-11" transform="translate(943.000000, 36.000000)">
                        <g id="编组-17备份" transform="translate(75.000000, 11.000000) rotate(-180.000000) translate(-75.000000, -11.000000) translate(67.000000, 3.000000)">
                            <g id="编组-16" transform="translate(8.000000, 8.000000) rotate(-180.000000) translate(-8.000000, -8.000000) ">
                                <rect id="矩形" x="0" y="0" width="16" height="16"></rect>
                                <g id="路径-2" transform="translate(5.333333, 1.333333)" fill="#333333">
                                    <path d="M10.5267561,2.66666667 L9.21094492,2.66666667 C9.12146975,2.66666667 9.03725784,2.71223958 8.98462539,2.78697917 L4.00033244,8.5921875 L-0.983960502,2.78697917 C-1.03659295,2.71223958 -1.12080487,2.66666667 -1.21028003,2.66666667 L-2.52609127,2.66666667 C-2.64012824,2.66666667 -2.70679601,2.8015625 -2.64012824,2.89817708 L3.54593896,10.4260417 C3.77050408,10.746875 4.2301608,10.746875 4.45297151,10.4260417 L10.6390387,2.89817708 C10.7074609,2.8015625 10.6407931,2.66666667 10.5267561,2.66666667 Z" id="路径" transform="translate(4.000000, 6.666667) rotate(-90.000000) translate(-4.000000, -6.666667) "></path>
                                </g>
                            </g>
                        </g>
                    </g>
                </g>
            </g>
        </g>
    </g>
</svg>