<?xml version="1.0" encoding="UTF-8"?>
<svg width="152px" height="35px" viewBox="0 0 152 35" version="1.1" xmlns="http://www.w3.org/2000/svg" xmlns:xlink="http://www.w3.org/1999/xlink">
    <!-- Generator: Sketch 59 (86127) - https://sketch.com -->
    <title>编组 10</title>
    <desc>Created with Sketch.</desc>
    <defs>
        <rect id="path-1" x="0" y="0.0645677161" width="152" height="34.6386807"></rect>
        <path d="M0.111410725,9.40706596 L24.765609,9.40706596 L32.656944,1.73193403 L35.9601551,9.40706596 L38.0336882,8.31870037 C42.5507106,5.94778497 48.1344875,7.68754842 50.5054029,12.2045708 C51.3968133,13.9028688 51.7374444,15.8365399 51.4800206,17.7372139 L48.9999758,36.0484861 C48.3795993,40.6290011 44.468901,44.0457466 39.8465655,44.0457466 L9.34839223,44.0457466 C4.24694821,44.0457466 0.111410725,39.9102091 0.111410725,34.8087651 L0.111410725,9.40706596 L0.111410725,9.40706596 Z" id="path-3"></path>
        <linearGradient x1="84.0749298%" y1="76.9112607%" x2="49.0083716%" y2="53.8726156%" id="linearGradient-5">
            <stop stop-color="#F8B83C" offset="0%"></stop>
            <stop stop-color="#F8B83B" stop-opacity="0.673792634" offset="11.9895642%"></stop>
            <stop stop-color="#F8B83B" stop-opacity="0.497553739" offset="25.7456701%"></stop>
            <stop stop-color="#F8B83B" stop-opacity="0.369282359" offset="37.6092692%"></stop>
            <stop stop-color="#F8B83B" stop-opacity="0.268004489" offset="50.1875254%"></stop>
            <stop stop-color="#F8B83A" stop-opacity="0.167707215" offset="63.1755061%"></stop>
            <stop stop-color="#F8B83A" stop-opacity="0.0955891292" offset="79.5339314%"></stop>
            <stop stop-color="#F8B83A" stop-opacity="0" offset="100%"></stop>
        </linearGradient>
        <linearGradient x1="26.3437366%" y1="56.8393657%" x2="59.7584246%" y2="80.4459764%" id="linearGradient-6">
            <stop stop-color="#F8B83A" offset="0%"></stop>
            <stop stop-color="#060605" offset="100%"></stop>
        </linearGradient>
        <linearGradient x1="65.9318787%" y1="71.9593411%" x2="60.6142272%" y2="12.9987063%" id="linearGradient-7">
            <stop stop-color="#302B26" stop-opacity="0" offset="0%"></stop>
            <stop stop-color="#F8B83A" stop-opacity="0" offset="100%"></stop>
        </linearGradient>
        <linearGradient x1="34.805585%" y1="56.8393657%" x2="61.493739%" y2="78.7952435%" id="linearGradient-8">
            <stop stop-color="#F8B83A" offset="0%"></stop>
            <stop stop-color="#1C1A1A" offset="100%"></stop>
        </linearGradient>
        <linearGradient x1="-1.2975861%" y1="31.1504161%" x2="38.8844638%" y2="97.8319211%" id="linearGradient-9">
            <stop stop-color="#060605" offset="0%"></stop>
            <stop stop-color="#634A19" offset="23.0763493%"></stop>
            <stop stop-color="#987125" offset="45.4617053%"></stop>
            <stop stop-color="#CC9830" offset="68.2100802%"></stop>
            <stop stop-color="#DFA635" offset="84.6702609%"></stop>
            <stop stop-color="#F8B83A" stop-opacity="0" offset="100%"></stop>
        </linearGradient>
        <linearGradient x1="0%" y1="14.1628394%" x2="66.2447813%" y2="67.4846518%" id="linearGradient-10">
            <stop stop-color="#F8B83A" offset="0%"></stop>
            <stop stop-color="#060605" offset="100%"></stop>
        </linearGradient>
        <linearGradient x1="4.42639776%" y1="64.2580239%" x2="50%" y2="67.5236162%" id="linearGradient-11">
            <stop stop-color="#10100F" stop-opacity="0" offset="0%"></stop>
            <stop stop-color="#282725" offset="100%"></stop>
        </linearGradient>
        <linearGradient x1="57.4965121%" y1="37.668995%" x2="45.9884793%" y2="69.2216569%" id="linearGradient-12">
            <stop stop-color="#060605" offset="0%"></stop>
            <stop stop-color="#282725" offset="100%"></stop>
        </linearGradient>
        <linearGradient x1="0%" y1="40.2986851%" x2="21.4078224%" y2="85.0055909%" id="linearGradient-13">
            <stop stop-color="#10100F" stop-opacity="0" offset="0%"></stop>
            <stop stop-color="#282725" offset="100%"></stop>
        </linearGradient>
        <linearGradient x1="83.2725815%" y1="69.6568095%" x2="12.6004383%" y2="-19.0044611%" id="linearGradient-14">
            <stop stop-color="#F7B635" offset="0%"></stop>
            <stop stop-color="#FFFFFF" offset="100%"></stop>
        </linearGradient>
        <ellipse id="path-15" cx="9.22443126" cy="9.41268496" rx="8.03215783" ry="9.2871825"></ellipse>
        <filter x="0.0%" y="0.0%" width="100.0%" height="100.0%" filterUnits="objectBoundingBox" id="filter-16">
            <feOffset dx="0" dy="0" in="SourceAlpha" result="shadowOffsetOuter1"></feOffset>
            <feColorMatrix values="0 0 0 0 0   0 0 0 0 0   0 0 0 0 0  0 0 0 0.5 0" type="matrix" in="shadowOffsetOuter1"></feColorMatrix>
        </filter>
        <linearGradient x1="35.3038935%" y1="29.2730464%" x2="84.3672361%" y2="83.9527882%" id="linearGradient-17">
            <stop stop-color="#FFFFFF" stop-opacity="0" offset="0%"></stop>
            <stop stop-color="#FFFFFF" stop-opacity="0.0119106907" offset="66.3488625%"></stop>
            <stop stop-color="#FFDF87" offset="100%"></stop>
        </linearGradient>
        <linearGradient x1="34.8770189%" y1="-2.15513673%" x2="52.4805887%" y2="97.6190437%" id="linearGradient-18">
            <stop stop-color="#FFE99C" offset="0%"></stop>
            <stop stop-color="#FDCE63" offset="100%"></stop>
        </linearGradient>
        <linearGradient x1="36.7550182%" y1="46.509544%" x2="17.2620028%" y2="27.8501338%" id="linearGradient-19">
            <stop stop-color="#FFFFFF" stop-opacity="0" offset="0%"></stop>
            <stop stop-color="#FFFFFF" offset="100%"></stop>
        </linearGradient>
        <ellipse id="path-20" cx="8.03215783" cy="9.41268496" rx="6.77713317" ry="7.83606023"></ellipse>
        <filter x="0.0%" y="0.0%" width="100.0%" height="100.0%" filterUnits="objectBoundingBox" id="filter-21">
            <feOffset dx="0" dy="0" in="SourceAlpha" result="shadowOffsetInner1"></feOffset>
            <feComposite in="shadowOffsetInner1" in2="SourceAlpha" operator="arithmetic" k2="-1" k3="1" result="shadowInnerInner1"></feComposite>
            <feColorMatrix values="0 0 0 0 0   0 0 0 0 0   0 0 0 0 0  0 0 0 0.5 0" type="matrix" in="shadowInnerInner1"></feColorMatrix>
        </filter>
        <linearGradient x1="35.3038935%" y1="29.2730464%" x2="84.3672361%" y2="83.9527882%" id="linearGradient-22">
            <stop stop-color="#FFFFFF" stop-opacity="0" offset="0%"></stop>
            <stop stop-color="#FFFFFF" stop-opacity="0.0119106907" offset="66.3488625%"></stop>
            <stop stop-color="#FFFFFF" offset="100%"></stop>
        </linearGradient>
        <linearGradient x1="23.8935962%" y1="12.9960515%" x2="66.4386624%" y2="94.2782693%" id="linearGradient-23">
            <stop stop-color="#FFFFFF" offset="0%"></stop>
            <stop stop-color="#FEE595" offset="100%"></stop>
        </linearGradient>
        <path d="M7.34602913,5.19696188 L7.34602913,6.3428218 C7.59963376,6.33663632 7.78829086,6.33354358 7.91200043,6.33354358 L7.91200043,5.19696188 L8.62642322,5.19696188 L8.62642322,6.36601735 C8.87074963,6.38766652 9.08724138,6.42245984 9.27589848,6.4703973 C9.46455558,6.51833476 9.63929536,6.5879214 9.8001178,6.67915721 C9.96094024,6.77039302 10.0885157,6.89100985 10.1828443,7.04100771 C10.2771728,7.19100556 10.3336153,7.36806489 10.3521718,7.5721857 C10.4078411,8.13506426 10.2052666,8.53402763 9.74444849,8.76907582 C10.106299,8.85567252 10.3769137,9.0149486 10.5562926,9.24690405 C10.7356714,9.4788595 10.8052581,9.80978261 10.7650525,10.2396734 C10.7434033,10.4592579 10.6931463,10.6525541 10.6142814,10.819562 C10.5354166,10.9865699 10.4356757,11.1241968 10.3150589,11.2324427 C10.1944421,11.3406886 10.0444442,11.4311512 9.86506532,11.5038306 C9.68568643,11.57651 9.49780252,11.6298597 9.30141358,11.6638798 C9.10502465,11.6979 8.88002786,11.7210955 8.62642322,11.7334665 L8.62642322,12.9164393 L7.91200043,12.9164393 L7.91200043,11.7520229 C7.66458128,11.7520229 7.47592418,11.7504765 7.34602913,11.7473838 L7.34602913,12.9164393 L6.63160634,12.9164393 L6.63160634,11.7334665 C6.57593703,11.7334665 6.49243307,11.7326933 6.38109445,11.7311469 C6.26975583,11.7296006 6.1847055,11.7288274 6.12594346,11.7288274 L5.19812165,11.7288274 L5.34193403,10.8798704 L5.85687513,10.8798704 C6.0115121,10.8798704 6.10120154,10.8010056 6.12594346,10.6432759 L6.12594346,8.77835403 L6.2001692,8.77835403 C6.18161277,8.77526129 6.15687086,8.77371493 6.12594346,8.77371493 L6.12594346,7.44229064 C6.08573785,7.23198437 5.94811095,7.12683123 5.71306276,7.12683123 L5.19812165,7.12683123 L5.19812165,6.36601735 L6.18161276,6.37065646 C6.37954808,6.37065646 6.52954594,6.36911009 6.63160634,6.36601735 L6.63160634,5.19696188 L7.34602913,5.19696188 Z M7.87952667,9.30721246 C7.80220818,9.30721246 7.70246734,9.30875882 7.58030414,9.31185157 C7.45814093,9.31494433 7.38468838,9.3164907 7.35994646,9.31649069 L7.35994646,9.31649069 L7.35994646,10.8845095 L7.38459173,10.8846545 C7.41532582,10.8849444 7.46432641,10.8856693 7.53159349,10.8868291 C7.62128293,10.8883755 7.69550867,10.8891486 7.75427072,10.8891486 C7.81303277,10.8891486 7.89499036,10.8868291 8.0001435,10.88219 C8.10529663,10.8775509 8.19575926,10.8713654 8.27153138,10.8636335 C8.3473035,10.8559017 8.43544657,10.8427576 8.53596059,10.8242011 C8.63647461,10.8056447 8.72229813,10.7839955 8.79343114,10.7592536 C8.86456416,10.7345117 8.93801671,10.7020379 9.01378882,10.6618323 C9.08956092,10.6216267 9.15064252,10.5752356 9.19703363,10.522659 C9.24342473,10.4700825 9.28131079,10.4082277 9.3106918,10.3370947 C9.34007281,10.2659617 9.35476333,10.1870968 9.35476333,10.1005001 C9.35476333,9.98916149 9.33156779,9.89019383 9.2851767,9.80359713 C9.23878561,9.71700044 9.18156994,9.64586743 9.11352967,9.59019811 C9.0454894,9.5345288 8.95657314,9.48736452 8.8467809,9.44870529 C8.73698865,9.41004606 8.63570144,9.38143822 8.54291925,9.36288177 C8.45013707,9.34432532 8.33570571,9.33040799 8.19962519,9.32112979 C8.06354466,9.31185159 7.95684516,9.30721246 7.87952667,9.30721246 Z M7.79370315,7.17090276 C7.72720924,7.17244912 7.64370528,7.17399549 7.54319126,7.17554187 C7.49293425,7.17631507 7.45253535,7.17689496 7.42199454,7.17728155 L7.35994646,7.17786143 L7.35994646,8.6020679 L7.41155655,8.60264779 C7.43823142,8.60303438 7.47437781,8.60361427 7.51999571,8.60438745 C7.61123152,8.60593382 7.68313771,8.60593382 7.73571429,8.60438745 C7.78829086,8.60284108 7.86560934,8.59974834 7.96766973,8.59510923 C8.06973012,8.59047012 8.15478045,8.58196509 8.22282073,8.56959413 C8.29086101,8.55722318 8.37049905,8.54021311 8.46173484,8.51856393 C8.55297064,8.49691475 8.62796957,8.46830691 8.68673163,8.43274042 C8.7454937,8.39717392 8.80270938,8.35542194 8.85837867,8.30748447 C8.91404796,8.259547 8.95579994,8.20001177 8.98363461,8.12887877 C9.01146929,8.05774578 9.02538659,7.97888093 9.02538659,7.89228421 C9.02538659,7.79022381 9.00605697,7.69976119 8.96739773,7.62089634 C8.92873849,7.54203149 8.88157422,7.47708396 8.8259049,7.42605376 C8.77023559,7.37502356 8.69600985,7.33172521 8.60322767,7.29615871 C8.5104455,7.26059221 8.42539517,7.23507711 8.34807667,7.21961341 C8.27075818,7.2041497 8.17565645,7.19177875 8.06277147,7.18250054 C7.94988649,7.17322233 7.86019705,7.1693564 7.79370315,7.17090276 Z" id="path-24"></path>
        <filter x="0.0%" y="-0.0%" width="100.0%" height="100.0%" filterUnits="objectBoundingBox" id="filter-25">
            <feOffset dx="0" dy="0" in="SourceAlpha" result="shadowOffsetOuter1"></feOffset>
            <feColorMatrix values="0 0 0 0 0.928385417   0 0 0 0 0.64220078   0 0 0 0 0.0787747763  0 0 0 1 0" type="matrix" in="shadowOffsetOuter1"></feColorMatrix>
        </filter>
        <path d="M7.51591012,17.9847034 C9.90504244,40.2507845 11.0996086,51.4508605 11.0996086,51.5849312 C11.0996086,51.6510312 24.0955395,49.8800341 50.0874012,46.27194 L46.4635071,6.87434452 L7.51591012,17.9847034 Z" id="path-26"></path>
        <linearGradient x1="36.0569334%" y1="23.9594794%" x2="85.5629098%" y2="67.3823598%" id="linearGradient-28">
            <stop stop-color="#060605" offset="0%"></stop>
            <stop stop-color="#252322" offset="100%"></stop>
        </linearGradient>
        <linearGradient x1="-49.2770147%" y1="10.3974196%" x2="81.6023068%" y2="59.0239781%" id="linearGradient-29">
            <stop stop-color="#060605" offset="0%"></stop>
            <stop stop-color="#252322" offset="100%"></stop>
        </linearGradient>
        <linearGradient x1="36.0569334%" y1="31.1622442%" x2="85.5629098%" y2="62.5744279%" id="linearGradient-30">
            <stop stop-color="#060605" offset="0%"></stop>
            <stop stop-color="#252322" offset="100%"></stop>
        </linearGradient>
        <linearGradient x1="36.7795693%" y1="12.109518%" x2="83.6505812%" y2="86.6695074%" id="linearGradient-31">
            <stop stop-color="#262321" offset="0%"></stop>
            <stop stop-color="#1C1A1A" offset="100%"></stop>
        </linearGradient>
        <linearGradient x1="6.45423745%" y1="77.6933246%" x2="86.5720921%" y2="58.0734501%" id="linearGradient-32">
            <stop stop-color="#F8B83A" offset="0%"></stop>
            <stop stop-color="#3F3F3F" offset="100%"></stop>
        </linearGradient>
        <linearGradient x1="56.4983916%" y1="59.8732509%" x2="41.8977578%" y2="100%" id="linearGradient-33">
            <stop stop-color="#F8B83C" offset="0%"></stop>
            <stop stop-color="#F8B83A" offset="100%"></stop>
        </linearGradient>
        <linearGradient x1="53.9964217%" y1="22.0620613%" x2="47.4716992%" y2="87.2995451%" id="linearGradient-34">
            <stop stop-color="#232321" offset="0%"></stop>
            <stop stop-color="#F8B83A" offset="100%"></stop>
        </linearGradient>
        <linearGradient x1="87.7638409%" y1="87.8643052%" x2="47.2156432%" y2="60.6450971%" id="linearGradient-35">
            <stop stop-color="#3F3625" offset="0%"></stop>
            <stop stop-color="#292826" offset="64.8362688%"></stop>
            <stop stop-color="#060605" offset="100%"></stop>
        </linearGradient>
        <linearGradient x1="226.258243%" y1="40.0371533%" x2="20.691325%" y2="40.0371533%" id="linearGradient-36">
            <stop stop-color="#000000" offset="0%"></stop>
            <stop stop-color="#FFFFFF" offset="100%"></stop>
        </linearGradient>
        <linearGradient x1="18.3681814%" y1="49.9999985%" x2="100%" y2="49.9999985%" id="linearGradient-37">
            <stop stop-color="#FF6E3E" offset="0%"></stop>
            <stop stop-color="#FED26C" offset="100%"></stop>
        </linearGradient>
        <linearGradient x1="93.6065169%" y1="54.6734926%" x2="4.98761492%" y2="29.3287171%" id="linearGradient-38">
            <stop stop-color="#FFE492" offset="0%"></stop>
            <stop stop-color="#FAFAFA" offset="9.38264181%"></stop>
            <stop stop-color="#C4C4C4" offset="100%"></stop>
        </linearGradient>
        <linearGradient x1="57.1721695%" y1="81.9794691%" x2="13.1301543%" y2="41.8793627%" id="linearGradient-39">
            <stop stop-color="#F8B83A" offset="0%"></stop>
            <stop stop-color="#E1E1E1" offset="55.3582117%"></stop>
            <stop stop-color="#C4C4C4" offset="100%"></stop>
        </linearGradient>
        <linearGradient x1="68.2085159%" y1="50%" x2="10.1825306%" y2="48.9209113%" id="linearGradient-40">
            <stop stop-color="#FFFFFF" offset="0%"></stop>
            <stop stop-color="#CFCFCF" stop-opacity="0" offset="100%"></stop>
        </linearGradient>
        <circle id="path-41" cx="10.993377" cy="16.9967017" r="1"></circle>
        <filter x="0.0%" y="0.0%" width="100.0%" height="100.0%" filterUnits="objectBoundingBox" id="filter-42">
            <feOffset dx="0" dy="0" in="SourceAlpha" result="shadowOffsetInner1"></feOffset>
            <feComposite in="shadowOffsetInner1" in2="SourceAlpha" operator="arithmetic" k2="-1" k3="1" result="shadowInnerInner1"></feComposite>
            <feColorMatrix values="0 0 0 0 0.0705882353   0 0 0 0 0.0705882353   0 0 0 0 0.0666666667  0 0 0 1 0" type="matrix" in="shadowInnerInner1"></feColorMatrix>
        </filter>
        <linearGradient x1="65.0467513%" y1="-16.6771051%" x2="82.5974713%" y2="83.6700423%" id="linearGradient-43">
            <stop stop-color="#FFFFFF" offset="0%"></stop>
            <stop stop-color="#FFFFFF" stop-opacity="0" offset="100%"></stop>
        </linearGradient>
        <linearGradient x1="-26.8831697%" y1="50%" x2="50%" y2="100%" id="linearGradient-44">
            <stop stop-color="#000000" offset="0%"></stop>
            <stop stop-color="#FFFFFF" offset="100%"></stop>
        </linearGradient>
    </defs>
    <g id="页面-1" stroke="none" stroke-width="1" fill="none" fill-rule="evenodd">
        <g id="激励挖矿-个人中心" transform="translate(-1249.000000, -183.000000)">
            <g id="我的弹窗" transform="translate(1240.000000, 53.000000)">
                <g id="编组-10" transform="translate(9.000000, 130.000000)">
                    <g id="编组-9">
                        <mask id="mask-2" fill="white">
                            <use xlink:href="#path-1"></use>
                        </mask>
                        <g id="蒙版"></g>
                        <g id="编组-49" mask="url(#mask-2)">
                            <g transform="translate(0.000000, -9.172414)" id="编组-48">
                                <g>
                                    <g id="编组-47">
                                        <g id="编组-41">
                                            <path d="M17.3193403,9.17241379 L134.68066,9.17241379 C144.245867,9.17241379 152,16.9265466 152,26.4917541 C152,36.0569617 144.245867,43.8110945 134.68066,43.8110945 L17.3193403,43.8110945 C7.75413279,43.8110945 1.17140008e-15,36.0569617 0,26.4917541 C-1.17140008e-15,16.9265466 7.75413279,9.17241379 17.3193403,9.17241379 Z" id="蒙版" fill="#060606"></path>
                                            <g id="编组-35" transform="translate(5.773113, 0.000000)">
                                                <g id="编组-46">
                                                    <g id="编组-40" transform="translate(3.463868, 0.000000)">
                                                        <mask id="mask-4" fill="white">
                                                            <use xlink:href="#path-3"></use>
                                                        </mask>
                                                        <g id="蒙版"></g>
                                                        <g id="编组-39" mask="url(#mask-4)">
                                                            <g transform="translate(-4.249674, -9.236982)">
                                                                <path d="M8.09927089,18.796408 C10.4884032,41.0624891 11.6829694,52.262565 11.6829694,52.3966357 C11.6829694,52.4627357 24.6789002,50.6917386 50.670762,47.0836445 L46.8945068,7.71733446 L8.09927089,18.796408 Z" id="路径-36" stroke="none" fill="url(#linearGradient-5)" fill-rule="evenodd" transform="translate(29.385016, 30.057877) rotate(23.000000) translate(-29.385016, -30.057877) "></path>
                                                                <g id="编组-29" stroke="none" stroke-width="1" fill="none" fill-rule="evenodd" transform="translate(6.558920, 19.221359)">
                                                                    <path d="M19.8228611,2.32483278 L19.9436981,2.53656183 L20.5380757,4.43312077 L18.0431418,7.50384149 L20.5380757,11.3523645 L13.6987432,18.8265115 L10.6235475,18.4286603 L5.80074723,20.7234966 L5.39786107,20.1468328 L10.4423616,16.1509548 L10.4423616,12.5332003 L16.4447214,7.94353803 L16.1376518,5.51310477 L19.8228611,2.32483278 Z" id="形状结合" fill="url(#linearGradient-6)" opacity="0.191010975"></path>
                                                                    <path d="M13.9164429,18.5878764 L13.6987432,18.8265115 L10.6235475,18.4286603 L5.80074723,20.7234966 L5.39786107,20.1468328 L10.4423616,16.1509548 L10.4423616,12.5332003 L11.1964048,11.9544011 C11.7737312,13.3461844 12.6804106,15.5573428 13.9164429,18.5878764 Z" id="形状结合" fill="url(#linearGradient-7)"></path>
                                                                    <path d="M16.181711,5.47406617 L18.143711,7.37906617 L18.0431418,7.50384149 L19.508711,9.76506617 L17.9711673,12.033583 L15.182711,8.90806617 L16.4447214,7.94353803 L16.1376518,5.51310477 L16.181711,5.47406617 Z" id="形状结合" fill="url(#linearGradient-8)" opacity="0.191010975"></path>
                                                                    <path d="M16.181711,5.47406617 L18.143711,7.37906617 L18.0431418,7.50384149 L19.508711,9.76506617 L17.9711673,12.033583 L15.182711,8.90806617 L16.4447214,7.94353803 L16.1376518,5.51310477 L16.181711,5.47406617 Z" id="形状结合" fill="url(#linearGradient-8)" opacity="0.191010975"></path>
                                                                    <path d="M16.4378303,7.89504298 L20.9939788,11.3153023 L17.1745898,20.150388 L14.0305212,19.9754535 L10.4418303,12.674043 L10.4423616,12.5332003 L16.4447214,7.94353803 L16.4378303,7.89504298 Z" id="形状结合" fill="url(#linearGradient-9)"></path>
                                                                    <path d="M10.4230484,16.1668723 L12.6999338,21.8243062 L12.3707836,21.8568136 C11.8426031,20.6146674 11.4498416,20.3894195 11.1924994,21.18107 C11.1028305,21.4569142 10.9793163,21.7352712 10.8219566,22.0161411 C9.1588107,22.1913226 7.92197968,22.3361721 7.11010498,22.4511381 L5.27704838,20.0568328 L5.39419807,20.150388 L10.4230484,16.1668723 Z" id="形状结合" fill="url(#linearGradient-10)"></path>
                                                                    <polygon id="路径-16" fill="url(#linearGradient-11)" points="9.17354585 3.82388945 13.4314738 0.291311027 19.517506 1.00034808 19.9436981 2.22013116 16.1376518 5.51310477 16.4447214 7.94353803 10.4423616 12.5332003 10.4423616 16.1509548 5.39419807 20.150388 0.351347931 16.1509548 0 11.2172506 3.43798489 6.63068785 7.28797891 2.5307431"></polygon>
                                                                    <path d="M13.6784525,0.0864058112 L19.3868626,0.626440124 L19.9436981,2.22013116 L16.1376518,5.51310477 L16.4447214,7.94353803 L10.4966468,12.4904058 L3.07764678,7.11040581 L3.43798489,6.63068785 L7.28797891,2.5307431 L9.17354585,3.82388945 L13.6784525,0.0864058112 Z" id="形状结合" fill="url(#linearGradient-12)"></path>
                                                                    <path d="M0.0265935091,11.5898356 L10.2575935,16.2958356 L5.39419807,20.150388 L0.351347931,16.1509548 L0.0265935091,11.5898356 Z" id="形状结合" fill="url(#linearGradient-13)"></path>
                                                                </g>
                                                                <g id="编组-23" stroke="none" stroke-width="1" fill="none" fill-rule="evenodd" transform="translate(20.991703, 24.994472)">
                                                                    <g id="编组-25">
                                                                        <g id="编组-24">
                                                                            <g id="椭圆形备份-7">
                                                                                <use fill="black" fill-opacity="1" filter="url(#filter-16)" xlink:href="#path-15"></use>
                                                                                <use fill="url(#linearGradient-14)" fill-rule="evenodd" xlink:href="#path-15"></use>
                                                                            </g>
                                                                            <ellipse id="椭圆形备份-7" stroke="url(#linearGradient-17)" stroke-width="0.655172414" opacity="0.575032552" cx="9.17162461" cy="9.31981117" rx="8.03215783" ry="9.2871825"></ellipse>
                                                                            <ellipse id="椭圆形" fill="url(#linearGradient-18)" cx="8.03215783" cy="9.41268496" rx="8.03215783" ry="9.2871825"></ellipse>
                                                                            <ellipse id="椭圆形" stroke="url(#linearGradient-19)" stroke-width="0.655172414" cx="8.00825966" cy="9.41739728" rx="7.90665537" ry="9.16168003"></ellipse>
                                                                            <g id="椭圆形">
                                                                                <use fill="#F8B83A" fill-rule="evenodd" xlink:href="#path-20"></use>
                                                                                <use fill="black" fill-opacity="1" filter="url(#filter-21)" xlink:href="#path-20"></use>
                                                                            </g>
                                                                            <ellipse id="椭圆形" stroke="url(#linearGradient-22)" stroke-width="0.655172414" cx="8.03215783" cy="9.41268496" rx="6.77713317" ry="7.83606023"></ellipse>
                                                                        </g>
                                                                    </g>
                                                                    <g id="形状结合" fill-rule="nonzero">
                                                                        <use fill="black" fill-opacity="1" filter="url(#filter-25)" xlink:href="#path-24"></use>
                                                                        <use fill="url(#linearGradient-23)" xlink:href="#path-24"></use>
                                                                    </g>
                                                                </g>
                                                                <g id="编组-36" stroke="none" stroke-width="1" fill="none" fill-rule="evenodd">
                                                                    <mask id="mask-27" fill="white">
                                                                        <use xlink:href="#path-26"></use>
                                                                    </mask>
                                                                    <g id="蒙版" transform="translate(28.801656, 29.230530) rotate(23.000000) translate(-28.801656, -29.230530) "></g>
                                                                    <g id="编组-27" mask="url(#mask-27)">
                                                                        <g transform="translate(33.115241, 35.386076)">
                                                                            <path d="M8.6506006,14.6142953 L14.2305449,8.37111363 L9.78726801,6.22380914 L10.2791999,3.63594264 L9.23917752,3.262205 L10.6908119,0 L11.0382503,0.118805664 C12.6745729,0.699583909 14.5201027,1.64928753 16.5748398,2.96791654 C18.7763439,4.38073333 20.5703716,7.0369479 21.956923,10.9365602 L21.956923,10.9365602 L20.1228442,14.6142953 L18.1100591,14.6142953 L15.1171107,17.5049394 L11.5279668,17.8571278 L5.53749885,17.0545822 L0.416618428,13.1143384 C0.681594132,13.1143384 3.42625486,13.614324 8.6506006,14.6142953 Z" id="形状结合" fill="url(#linearGradient-28)"></path>
                                                                            <path d="M8.55067032,14.5951712 L11.5806184,17.8513384 L11.5279668,17.8571278 L5.53749885,17.0545822 L0.416618428,13.1143384 C0.67989952,13.1143384 3.39125015,13.6079493 8.55067032,14.5951712 Z" id="形状结合" fill="url(#linearGradient-29)"></path>
                                                                            <path d="M14.4369565,8.44596044 L21.956923,10.9365602 L20.1228442,14.6142953 L18.1100591,14.6142953 L15.1171107,17.5049394 L11.6131891,17.8484877 L8.62118914,14.608666 C8.63098421,14.6105407 8.64078803,14.6124171 8.6506006,14.6142953 L14.1641891,8.44548766 L14.4369565,8.44596044 Z" id="形状结合" fill="url(#linearGradient-30)"></path>
                                                                            <path d="M0.416618428,13.1143384 C0.681594132,13.1143384 3.42625486,13.614324 8.6506006,14.6142953 L14.2305449,8.37111363 L9.78726801,6.22380914 L10.2791999,3.63594264 L9.23917752,3.262205 L10.6908119,0 L3.18406184,3.262205 L0,9.90676828 C0.0127699135,12.0451483 0.151642723,13.1143384 0.416618428,13.1143384 Z" id="路径-14" fill="url(#linearGradient-31)"></path>
                                                                            <path d="M0.416618428,13.1143384 C0.681594132,13.1143384 3.42625486,13.614324 8.6506006,14.6142953 L14.2305449,8.37111363 L9.78726801,6.22380914 L10.2791999,3.63594264 L9.23917752,3.262205 L10.6908119,0 L3.18406184,3.262205 L0,9.90676828 C0.0127699135,12.0451483 0.151642723,13.1143384 0.416618428,13.1143384 Z" id="路径-14" fill="url(#linearGradient-32)" opacity="0.279506138"></path>
                                                                        </g>
                                                                    </g>
                                                                </g>
                                                                <g id="编组-30" stroke="none" stroke-width="1" fill="none" fill-rule="evenodd" transform="translate(38.888355, 24.417161)">
                                                                    <polygon id="路径-28" fill="url(#linearGradient-33)" transform="translate(4.365768, 7.769803) rotate(38.000000) translate(-4.365768, -7.769803) " points="2.56154268 12.2518163 6.16999302 8.52716801 6.16999302 6.08005497 4.35028422 3.28778997"></polygon>
                                                                    <path d="M5.92372505,-0.0230429474 C5.92372505,0.347241697 5.15953678,4.61902572 3.63116025,12.7923091 L4.91679108,9.25269364 C5.35136226,8.0562266 6.18187289,7.04425951 7.27057784,6.38463309 L7.27057784,6.38463309 L7.27057784,6.38463309 L7.17261826,6.22672202 C6.35627552,4.91076663 5.92372505,3.39295262 5.92372505,1.84435517 C5.92372505,0.338789888 5.92372505,-0.283676152 5.92372505,-0.0230429474 Z" id="路径-9" fill="url(#linearGradient-34)" transform="translate(5.450869, 6.355787) rotate(38.000000) translate(-5.450869, -6.355787) "></path>
                                                                </g>
                                                                <path d="M11.5467846,53.0660925 C11.5467846,53.1321925 24.4903727,51.2666192 50.3775489,47.4693727 L46.758322,8.38679129" id="边框" stroke="url(#linearGradient-35)" stroke-width="1.61647176" fill="none" transform="translate(30.962167, 30.727290) rotate(23.000000) translate(-30.962167, -30.727290) "></path>
                                                            </g>
                                                        </g>
                                                    </g>
                                                    <g id="编组-34" transform="translate(9.687867, 22.965744) rotate(-7.000000) translate(-9.687867, -22.965744) translate(1.187867, 13.465744)">
                                                        <rect id="矩形" fill="url(#linearGradient-36)" transform="translate(9.256163, 5.828082) rotate(32.000000) translate(-9.256163, -5.828082) " x="8.67243684" y="4.61572822" width="1.16745183" height="2.42470765"></rect>
                                                        <g id="编组-33">
                                                            <polygon id="矩形" fill="url(#linearGradient-37)" transform="translate(5.458441, 11.678903) rotate(32.000000) translate(-5.458441, -11.678903) " points="4.5112257 4.4340802 6.522835 4.4340802 6.40565568 18.9237257 4.39404638 18.9237257"></polygon>
                                                            <g id="编组-32">
                                                                <path d="M-7.10542736e-15,2.60697484 C1.88030252,2.00656037 3.76060505,1.40614591 5.64090757,0.805731441 C7.26980287,0.285595831 9.03059311,0.361745803 10.6085013,1.02056801 L16.9217416,3.65652802 L16.9217416,3.65652802 L14.527337,7.83157691 L8.01409574,3.90002162 C7.00966682,3.29372321 5.87237137,2.94188504 4.70104194,2.87508236 C3.13402796,2.78571319 1.56701398,2.69634401 -7.10542736e-15,2.60697484 Z" id="路径-4" fill="url(#linearGradient-38)"></path>
                                                                <path d="M10.2660117,2.22079737 L16.2990321,4.73953994 L14.527337,7.83157691 L8.01409574,3.90002162 C7.00966682,3.29372321 5.87237137,2.94188504 4.70104194,2.87508236 L2.90003214,2.77180862 C3.6994941,2.51652601 4.49895606,2.26124341 5.29841802,2.0059608 C6.92731332,1.48582519 8.68810356,1.56197516 10.2660117,2.22079737 Z" id="形状结合" fill="url(#linearGradient-39)"></path>
                                                                <path d="M2.89895335,2.7718231 L5.29841802,2.0059608 L5.29841802,2.0059608 C6.92731332,1.48582519 8.68810356,1.56197516 10.2660117,2.22079737 L16.3000816,4.73987747" id="路径" stroke="url(#linearGradient-40)" stroke-width="0.655172414"></path>
                                                            </g>
                                                        </g>
                                                    </g>
                                                    <g id="椭圆形">
                                                        <use fill="#FF6F3E" fill-rule="evenodd" xlink:href="#path-41"></use>
                                                        <use fill="black" fill-opacity="1" filter="url(#filter-42)" xlink:href="#path-41"></use>
                                                    </g>
                                                </g>
                                                <g id="编组-22" transform="translate(65.343151, 15.398594) rotate(-15.000000) translate(-65.343151, -15.398594) translate(62.343151, 12.898594)" fill="url(#linearGradient-43)">
                                                    <path d="M3.11265461,3.55574653 C3.44934991,3.55574653 3.72229539,3.82869201 3.72229539,4.16538731 C3.72229539,4.50208262 3.44934991,4.77502809 3.11265461,4.77502809 C2.7759593,4.77502809 2.50301383,4.50208262 2.50301383,4.16538731 C2.50301383,3.82869201 2.7759593,3.55574653 3.11265461,3.55574653 Z M4.73836335,1.93003779 C5.07505866,1.93003779 5.34800413,2.20298326 5.34800413,2.53967857 C5.34800413,2.87637387 5.07505866,3.14931935 4.73836335,3.14931935 C4.40166805,3.14931935 4.12872257,2.87637387 4.12872257,2.53967857 C4.12872257,2.20298326 4.40166805,1.93003779 4.73836335,1.93003779 Z M1.48694586,1.93003779 C1.82364117,1.93003779 2.09658664,2.20298326 2.09658664,2.53967857 C2.09658664,2.87637387 1.82364117,3.14931935 1.48694586,3.14931935 C1.15025055,3.14931935 0.877305081,2.87637387 0.877305081,2.53967857 C0.877305081,2.20298326 1.15025055,1.93003779 1.48694586,1.93003779 Z M3.11265461,0.304329042 C3.44934991,0.304329042 3.72229539,0.577274516 3.72229539,0.913969822 C3.72229539,1.25066513 3.44934991,1.5236106 3.11265461,1.5236106 C2.7759593,1.5236106 2.50301383,1.25066513 2.50301383,0.913969822 C2.50301383,0.577274516 2.7759593,0.304329042 3.11265461,0.304329042 Z" id="形状结合"></path>
                                                </g>
                                                <circle id="椭圆形" fill="url(#linearGradient-44)" cx="56.6701649" cy="37.6156922" r="1.44327836"></circle>
                                                <circle id="椭圆形备份" fill="url(#linearGradient-44)" transform="translate(131.647659, 18.577994) rotate(100.000000) translate(-131.647659, -18.577994) " cx="131.647659" cy="18.5779936" r="1.5"></circle>
                                            </g>
                                        </g>
                                    </g>
                                </g>
                            </g>
                        </g>
                    </g>
                </g>
            </g>
        </g>
    </g>
</svg>