<?xml version="1.0" encoding="UTF-8"?>
<svg width="22px" height="22px" viewBox="0 0 22 22" version="1.1" xmlns="http://www.w3.org/2000/svg" xmlns:xlink="http://www.w3.org/1999/xlink">
    <!-- Generator: Sketch 58 (84663) - https://sketch.com -->
    <title>编组 12</title>
    <desc>Created with Sketch.</desc>
    <g id="0526-支付钱包UI--桌面端" stroke="none" stroke-width="1" fill="none" fill-rule="evenodd">
        <g id="推送-未登录" transform="translate(-1183.000000, -21.000000)">
            <g id="编组-12" transform="translate(1183.000000, 21.000000)">
                <g id="编组-15复制" fill="#D8D8D8" opacity="0">
                    <rect id="矩形" x="0" y="0" width="22" height="22"></rect>
                </g>
                <g id="xiaoxi" transform="translate(3.000000, 2.000000)" fill="#501BA2" fill-rule="nonzero">
                    <path d="M11.2,16.054401 L11.2,17.3498601 L5,17.3498601 L5,16.054401 L11.2,16.054401 Z M9.6,0.538632797 L9.6,1.44886321 C12.3616,2.19052988 13.9324423,4.22666667 13.9324423,7.33333333 L13.9324423,13 L16,13 L16,14.1275788 L0,14.1275788 L0,13 L2.07310978,13 L2.07310978,7.33333333 C2.07349794,4.29311637 3.57435233,2.21005694 6.4,1.44886321 L6.4,0.538632797 L9.6,0.538632797 Z M8.0016,2.16833333 L6.7984,2.49 C4.78167796,3.03411775 3.33159583,4.87041456 3.208,7.03666667 L3.2,7.33333333 L3.2,13 L12.8,13 L12.8,7.33333333 C12.7993701,5.16265493 11.4551347,3.24001064 9.472,2.57333333 L9.2016,2.49 L8.0016,2.16833333 Z" id="形状"></path>
                </g>
            </g>
        </g>
    </g>
</svg>