<?xml version="1.0" encoding="UTF-8"?>
<svg width="54px" height="51px" viewBox="0 0 54 51" version="1.1" xmlns="http://www.w3.org/2000/svg" xmlns:xlink="http://www.w3.org/1999/xlink">
    <!-- Generator: Sketch 59 (86127) - https://sketch.com -->
    <title>编组 38</title>
    <desc>Created with Sketch.</desc>
    <defs>
        <linearGradient x1="85.2299504%" y1="100%" x2="27.785062%" y2="15.0711583%" id="linearGradient-1">
            <stop stop-color="#FEA207" offset="0%"></stop>
            <stop stop-color="#FFD519" offset="100%"></stop>
        </linearGradient>
        <linearGradient x1="8.80917863%" y1="11.3739217%" x2="42.4042512%" y2="50%" id="linearGradient-2">
            <stop stop-color="#FFFFFF" offset="0%"></stop>
            <stop stop-color="#FFFFFF" stop-opacity="0" offset="100%"></stop>
        </linearGradient>
    </defs>
    <g id="页面-1" stroke="none" stroke-width="1" fill="none" fill-rule="evenodd">
        <g id="激励挖矿-总收益备份（关于适配，最小宽1024）备份" transform="translate(-374.000000, -341.000000)">
            <g id="编组-38" transform="translate(374.000000, 341.000000)">
                <g id="编组-25">
                    <circle id="椭圆形" fill="#8559F5" cx="25.012313" cy="25.012313" r="25.012313"></circle>
                    <g id="fasong" transform="translate(15.101774, 15.101774)" fill="#FFFFFF" fill-rule="nonzero">
                        <path d="M8.29399011,20.3315286 C8.1861203,20.3315286 8.07825048,20.3075575 7.97038067,20.2596154 C7.6707423,20.1277745 7.47897374,19.8401217 7.47897374,19.5165123 L7.47897374,13.5477159 C7.47897374,13.2960197 7.58684355,13.0682945 7.79059764,12.9124826 C7.98236619,12.7566706 8.23406242,12.7087285 8.48575866,12.7566706 L16.8037199,14.7462694 L18.4816947,2.80867667 C18.5056658,2.61690812 18.3138972,2.48506723 18.1460997,2.5809515 L2.93645604,11.3903196 L5.70511458,12.0974662 C6.10063723,12.1933505 6.38829007,12.5529165 6.35233347,12.9604247 C6.30439134,13.4758027 5.82496995,13.7994121 5.34554855,13.6795568 L0.611262277,12.4690178 C0.287652841,12.385119 0.0599276718,12.1214372 0.0119855384,11.7978278 C-0.0359565951,11.4742184 0.119855344,11.1506089 0.407508184,10.9828114 L19.1648702,0.111931317 C19.428552,-0.0438806419 19.764147,-0.0318951036 20.0278287,0.135902394 C20.279525,0.303699891 20.4233514,0.615323788 20.3754092,0.914962167 L18.2779406,15.8489386 C18.2419841,16.0766638 18.1221287,16.2804179 17.9303601,16.4122587 C17.7385916,16.5440996 17.5108664,16.5800562 17.2831412,16.5321141 L9.09702094,14.5784719 L9.09702094,17.6467688 L10.7270537,16.1246059 C11.0266921,15.8489386 11.4821424,15.7890109 11.8057518,16.0407071 C12.21326,16.352331 12.2252455,16.9396223 11.8656795,17.2752172 L8.84532472,20.115789 C8.68951278,20.2596154 8.4977442,20.3315286 8.29399011,20.3315286 L8.29399011,20.3315286 Z" id="路径"></path>
                        <path d="M8.29399011,14.3627323 C8.10222156,14.3627323 7.910453,14.290819 7.75464104,14.1589782 C7.41904607,13.8593398 7.39507499,13.3439618 7.69471337,13.0083668 L11.9975204,8.19018182 C12.2971588,7.85458684 12.8125368,7.83061577 13.1481317,8.13025414 C13.4837267,8.42989252 13.5076978,8.94527051 13.2080594,9.28086549 L8.90525239,14.0990505 C8.73745491,14.2788335 8.50972974,14.3627323 8.29399011,14.3627323 L8.29399011,14.3627323 Z" id="路径"></path>
                    </g>
                </g>
                <g id="编组-28" transform="translate(37.754435, 1.179826)">
                    <circle id="椭圆形" fill="url(#linearGradient-1)" cx="7.55088696" cy="7.55088696" r="7.55088696"></circle>
                    <circle id="椭圆形" stroke="url(#linearGradient-2)" stroke-width="0.5" cx="7.55088696" cy="7.55088696" r="7.55088696"></circle>
                    <text id="01" font-family="DINAlternate-Bold, DIN Alternate" font-size="9.4386087" font-weight="bold" fill="#333333">
                        <tspan x="3.741704" y="10.5100488">01</tspan>
                    </text>
                </g>
            </g>
        </g>
    </g>
</svg>